<?xml version="1.0" encoding="utf-8"?>
<!-- Generator: Adobe Illustrator 25.2.3, SVG Export Plug-In . SVG Version: 6.00 Build 0)  -->
<svg version="1.1" id="Layer_1" focusable="false" xmlns="http://www.w3.org/2000/svg" xmlns:xlink="http://www.w3.org/1999/xlink"
	 x="0px" y="0px" viewBox="0 0 512 512" style="enable-background:new 0 0 512 512;" xml:space="preserve">
<style type="text/css">
	.st0{opacity:0.6;fill:#035681;stroke:#3F3855;stroke-miterlimit:10;enable-background:new    ;}
	.st1{fill:#3F3855;}
</style>
<g>
	<path class="st0" d="M80.1,5.5C52.2-7.8,18.8,4,5.5,31.9S4,93.2,31.9,106.5l0,0V496c0,8.8,7.2,16,16,16h16c8.8,0,16-7.2,16-16
		V106.4c27.9-13.2,39.9-46.4,26.7-74.4C101.1,20.4,91.7,11,80.1,5.5L80.1,5.5z M192.1,390l64-9V147l-64-9L192.1,390z M352.1,161v206
		l64-9V170L352.1,161z"/>
	<path class="st1" d="M111.9,401.1l80-11.4V138.3l-80-11.4V401.1z M498.3,182L416,170.3v187.4l82.3-11.8c7.9-1.1,13.7-7.9,13.7-15.8
		V197.9C512,189.9,506.2,183.2,498.3,182z M255.9,380.6l96-13.7V161.1l-96-13.7V380.6z"/>
</g>
</svg>
